<svg id="Layer_1" data-name="Layer 1" xmlns="http://www.w3.org/2000/svg" viewBox="0 0 1080 1080"><defs><style>.cls-1{fill:#000960;}.cls-2{fill:#e2bcb0;}.cls-3{fill:#ffdac5;}.cls-4{fill:#456dff;}</style></defs><title>Vigilo-ikon-blå</title><rect class="cls-1" x="140" y="140" width="800" height="800" rx="168.71" transform="translate(1080 1080) rotate(180)"/><path class="cls-2" d="M657,626.25c-10.54-10.54-27.85-11.28-49.76-1.92-20,8.55-47.4,14.29-65.27-2.9-4.81-4.63-5.93-12.72.69-19.34l46.94-46.94h0L400.87,366.47A87.17,87.17,0,0,0,277.59,489.74L527.91,740.06a87.17,87.17,0,0,0,123.27,0c.12-.12.21-.24.32-.36C684.36,706.46,683.12,652.43,657,626.25Z"/><path class="cls-3" d="M650.85,740.37l.33-.31h0Z"/><path class="cls-3" d="M801.08,466.54a87.17,87.17,0,0,0-123.27,0l-88.26,88.61h0l-46.94,46.94c-6.62,6.62-5.5,14.71-.69,19.34,17.87,17.19,45.25,11.45,65.27,2.9,21.91-9.36,39.22-8.62,49.76,1.92,26.17,26.18,27.41,80.21-5.45,113.45-.11.12-.2.24-.32.36l149.9-150.25A87.17,87.17,0,0,0,801.08,466.54Z"/><path class="cls-4" d="M677.81,466.54A87.17,87.17,0,0,1,801.08,589.81l-44.89,45L633,511.57Z"/><path class="cls-4" d="M400.87,366.47,546.28,511.88,423,635.15,277.59,489.74A87.17,87.17,0,0,1,400.87,366.47Z"/></svg>